:SAMPLES-PER-SECOND 30
:FULLY-SPECIFIED
:DEGREES
37
root  2.77518 40.1998 0.46624 4.13974 -86.3814 -5.60232
RightUpLeg  1.74285 -8.71373 -9.3352
RightLeg  -0.143015 -14.9176 -0.820769
RightFoot  5.81698 -1.77866 12.0155
RightToes  -5.28226e-011 1.30204e-014 -6.03759e-014
Spine  1.43179 -0.507644 0.0758998
Spine1  7.63007 -0.109418 -1.56406
HEad  -5.97598 -9.89125 -0.552316
LeftShoulder1  2.51632 -5.98419 -20.0793
LeftArm  1.31324 10.2312 -54.2216
LeftForeArm  5.28597 -10.2449 -12.7652
LeftHand  -0.327353 1.17318 8.95856
RightShoulder  1.72275 2.95342 20.3474
RightArm  3.97143 -6.08155 54.2822
RightForeArm  19.5002 8.27395 13.9386
RightHand  -0.221898 -3.58115 -13.5443
LeftUpLeg  1.6123 9.88766 10.2167
LeftLeg  1.68138 -2.45949 1.52643
LeftFoot  0.295543 1.39905 -13.6453
LeftToes  -2.42178e-010 -1.66495e-011 -2.88221e-011
38
root  2.79118 40.1994 0.467265 4.92812 -86.3263 -6.49206
RightUpLeg  1.8887 -8.65546 -9.26569
RightLeg  -0.24994 -15.0269 -0.830187
RightFoot  5.88511 -1.78961 12.0423
RightToes  -5.28226e-011 1.30204e-014 -6.03759e-014
Spine  1.65492 -0.508799 0.142408
Spine1  7.48248 -0.0934562 -1.64788
HEad  -5.9115 -9.85085 -0.554234
LeftShoulder1  2.54468 -6.09968 -20.0543
LeftArm  1.49025 10.2294 -54.1309
LeftForeArm  5.53334 -10.1322 -12.8363
LeftHand  -0.319548 0.948936 8.32046
RightShoulder  1.7288 2.9675 20.3855
RightArm  3.78378 -6.1549 54.1985
RightForeArm  19.6157 8.16246 13.9727
RightHand  -0.194962 -3.83062 -13.6476
LeftUpLeg  1.65108 9.92957 10.2966
LeftLeg  1.74063 -2.56872 1.52305
LeftFoot  0.26804 1.40055 -13.6364
LeftToes  -2.42178e-010 -1.66495e-011 -2.88221e-011
39
root  2.80169 40.1999 0.470016 5.58256 -86.3313 -7.18875
RightUpLeg  1.97905 -8.62109 -9.22102
RightLeg  -0.384247 -15.0531 -0.805503
RightFoot  5.96257 -1.80176 12.0705
RightToes  -5.28226e-011 1.30204e-014 -6.03759e-014
Spine  1.76219 -0.489457 0.261985
Spine1  7.38338 -0.0215971 -1.87221
HEad  -5.79742 -9.80405 -0.571183
LeftShoulder1  2.56616 -6.18862 -20.0314
LeftArm  1.71439 10.2509 -53.9641
LeftForeArm  5.69772 -10.1217 -12.8542
LeftHand  -0.343595 0.707526 8.51352
RightShoulder  1.74092 2.98247 20.5199
RightArm  3.56525 -6.21486 54.0403
RightForeArm  19.7743 8.08247 13.9859
RightHand  -0.178414 -3.97925 -13.6851
LeftUpLeg  1.671 9.96507 10.3654
LeftLeg  1.77027 -2.65686 1.50646
LeftFoot  0.23219 1.40468 -13.6793
LeftToes  -2.42178e-010 -1.66495e-011 -2.88221e-011
40
root  2.81223 40.2016 0.476194 6.29865 -86.4277 -7.88601
RightUpLeg  1.96393 -8.5979 -9.18733
RightLeg  -0.488881 -14.9921 -0.772314
RightFoot  6.03329 -1.80912 12.0719
RightToes  -5.28226e-011 1.30204e-014 -6.03759e-014
Spine  1.80348 -0.441466 0.444575
Spine1  7.27729 0.103565 -2.20213
HEad  -5.67536 -9.78427 -0.574583
LeftShoulder1  2.57232 -6.21496 -20.0228
LeftArm  1.86327 10.2736 -53.778
LeftForeArm  5.53799 -10.145 -12.8585
LeftHand  -0.352913 0.949977 9.20959
RightShoulder  1.75654 3.00498 20.6779
RightArm  3.34749 -6.23709 53.8488
RightForeArm  19.9931 7.95395 14.0187
RightHand  -0.17995 -3.95184 -13.5514
LeftUpLeg  1.6653 9.99492 10.4122
LeftLeg  1.77184 -2.64722 1.48419
LeftFoot  0.2232 1.40809 -13.7204
LeftToes  -2.42178e-010 -1.66495e-011 -2.88221e-011
41
root  2.82576 40.2028 0.485288 7.03042 -86.5741 -8.58815
RightUpLeg  1.89436 -8.57916 -9.16349
RightLeg  -0.542862 -14.892 -0.751431
RightFoot  6.08563 -1.80994 12.0414
RightToes  -5.28226e-011 1.30204e-014 -6.03759e-014
Spine  1.87628 -0.368879 0.608005
Spine1  7.13091 0.238402 -2.47583
HEad  -5.60989 -9.80838 -0.587576
LeftShoulder1  2.57253 -6.19936 -20.0676
LeftArm  1.8289 10.2191 -53.5778
LeftForeArm  5.32583 -10.0581 -12.9054
LeftHand  -0.320845 1.47272 9.40508
RightShoulder  1.76661 3.02668 20.747
RightArm  3.08135 -6.21793 53.6999
RightForeArm  20.2301 7.75245 14.0698
RightHand  -0.1898 -3.85317 -13.4434
LeftUpLeg  1.65971 10.025 10.436
LeftLeg  1.76329 -2.53481 1.466
LeftFoot  0.247822 1.4081 -13.7163
LeftToes  -2.42178e-010 -1.66495e-011 -2.88221e-011
42
root  2.83975 40.2035 0.4942 7.31687 -86.6794 -8.85115
RightUpLeg  1.82992 -8.57763 -9.16996
RightLeg  -0.566188 -14.8016 -0.737981
RightFoot  6.12187 -1.80941 12.0118
RightToes  -5.28226e-011 1.30204e-014 -6.03759e-014
Spine  1.99349 -0.30421 0.643482
Spine1  6.96081 0.320786 -2.56388
HEad  -5.61549 -9.87582 -0.654437
LeftShoulder1  2.57682 -6.17736 -20.1687
LeftArm  1.54699 10.1011 -53.333
LeftForeArm  5.54948 -9.83387 -12.9782
LeftHand  -0.294024 1.60965 8.91382
RightShoulder  1.76069 3.02815 20.6429
RightArm  2.82356 -6.18068 53.6771
RightForeArm  20.4844 7.56939 14.113
RightHand  -0.204094 -3.74892 -13.6273
LeftUpLeg  1.64854 10.0309 10.4215
LeftLeg  1.75292 -2.41443 1.46311
LeftFoot  0.267917 1.40631 -13.6921
LeftToes  -2.42178e-010 -1.66495e-011 -2.88221e-011
43
root  2.8494 40.2039 0.501366 7.30571 -86.6893 -8.81123
RightUpLeg  1.80118 -8.58537 -9.18447
RightLeg  -0.606221 -14.7758 -0.718176
RightFoot  6.1597 -1.81196 12.0082
RightToes  -5.28226e-011 1.30204e-014 -6.03759e-014
Spine  2.11482 -0.281465 0.589601
Spine1  6.77283 0.329845 -2.52305
HEad  -5.61384 -9.95917 -0.759885
LeftShoulder1  2.58156 -6.16365 -20.2699
LeftArm  1.24472 10.0304 -53.0501
LeftForeArm  6.02039 -9.63593 -13.0217
LeftHand  -0.30362 1.31848 8.57351
RightShoulder  1.74565 3.02189 20.4232
RightArm  2.66562 -6.1636 53.7625
RightForeArm  20.775 7.47929 14.1281
RightHand  -0.220124 -3.6558 -14.0084
LeftUpLeg  1.6141 10.0033 10.3884
LeftLeg  1.73782 -2.39114 1.48023
LeftFoot  0.259816 1.40616 -13.7028
LeftToes  -2.42178e-010 -1.66495e-011 -2.88221e-011
44
root  2.85225 40.2041 0.507985 7.6834 -86.646 -9.16398
RightUpLeg  1.81794 -8.57706 -9.16404
RightLeg  -0.687086 -14.8333 -0.693142
RightFoot  6.2059 -1.81752 12.0133
RightToes  -5.28226e-011 1.30204e-014 -6.03759e-014
Spine  2.23314 -0.291098 0.594772
Spine1  6.54804 0.316105 -2.52995
HEad  -5.52868 -10.0086 -0.824904
LeftShoulder1  2.58359 -6.1625 -20.301
LeftArm  1.26061 10.0538 -52.7898
LeftForeArm  6.15635 -9.60352 -13.0304
LeftHand  -0.322802 1.18488 8.85498
RightShoulder  1.74323 3.04265 20.2918
RightArm  2.66629 -6.18145 53.8082
RightForeArm  20.8839 7.49506 14.1161
RightHand  -0.215851 -3.70934 -14.1491
LeftUpLeg  1.57901 9.98253 10.3887
LeftLeg  1.71982 -2.44013 1.50177
LeftFoot  0.246869 1.40807 -13.7545
LeftToes  -2.42178e-010 -1.66495e-011 -2.88221e-011
45
root  2.85027 40.2043 0.515105 8.21768 -86.6401 -9.68496
RightUpLeg  1.84333 -8.56103 -9.13628
RightLeg  -0.765795 -14.8825 -0.677434
RightFoot  6.24226 -1.82118 12.0149
RightToes  -5.28226e-011 1.30204e-014 -6.03759e-014
Spine  2.34817 -0.290561 0.698038
Spine1  6.30535 0.347799 -2.68479
HEad  -5.39815 -9.99324 -0.799722
LeftShoulder1  2.57998 -6.17409 -20.227
LeftArm  1.48956 10.1017 -52.6097
LeftForeArm  6.01268 -9.66274 -13.0287
LeftHand  -0.32228 1.34469 9.16926
RightShoulder  1.75927 3.08137 20.385
RightArm  2.87876 -6.18953 53.7145
RightForeArm  20.558 7.60869 14.0933
RightHand  -0.184848 -3.9386 -13.8254
LeftUpLeg  1.57388 9.99121 10.4102
LeftLeg  1.70225 -2.43386 1.50603
LeftFoot  0.242256 1.4086 -13.7919
LeftToes  -2.42178e-010 -1.66495e-011 -2.88221e-011
46
root  2.8472 40.2043 0.522455 8.09062 -86.701 -9.53027
RightUpLeg  1.81141 -8.56911 -9.16266
RightLeg  -0.780807 -14.8164 -0.676956
RightFoot  6.25327 -1.82464 12.0363
RightToes  -5.28226e-011 1.30204e-014 -6.03759e-014
Spine  2.42146 -0.261057 0.8025
Spine1  6.10766 0.431978 -2.92815
HEad  -5.32023 -9.93655 -0.725993
LeftShoulder1  2.57046 -6.1884 -20.0796
LeftArm  1.44179 10.1098 -52.5056
LeftForeArm  6.15155 -9.65274 -13.0181
LeftHand  -0.316346 1.3161 8.94287
RightShoulder  1.77312 3.0898 20.5741
RightArm  3.25835 -6.13087 53.5959
RightForeArm  20.0299 7.76707 14.0743
RightHand  -0.17071 -4.01298 -13.358
LeftUpLeg  1.57698 9.98921 10.3835
LeftLeg  1.6863 -2.33991 1.49752
LeftFoot  0.225808 1.40532 -13.7759
LeftToes  -2.42178e-010 -1.66495e-011 -2.88221e-011
47
root  2.84368 40.2042 0.529906 7.54381 -86.7742 -8.92873
RightUpLeg  1.7209 -8.59426 -9.21909
RightLeg  -0.736253 -14.6969 -0.68248
RightFoot  6.24463 -1.82847 12.0725
RightToes  -5.28226e-011 1.30204e-014 -6.03759e-014
Spine  2.43833 -0.220409 0.8564
Spine1  5.97266 0.518465 -3.12845
HEad  -5.30422 -9.88515 -0.679386
LeftShoulder1  2.56117 -6.19736 -19.9507
LeftArm  1.00695 10.0812 -52.4191
LeftForeArm  6.63167 -9.54128 -13.0013
LeftHand  -0.327868 0.968049 8.57262
RightShoulder  1.76859 3.06393 20.614
RightArm  3.58293 -6.02279 53.6356
RightForeArm  19.8163 7.87116 14.0674
RightHand  -0.202595 -3.70784 -13.1839
LeftUpLeg  1.54905 9.95239 10.3116
LeftLeg  1.68403 -2.25525 1.49891
LeftFoot  0.205549 1.40057 -13.7433
LeftToes  -2.42178e-010 -1.66495e-011 -2.88221e-011
48
root  2.83658 40.2041 0.536936 7.47721 -86.8065 -8.82215
RightUpLeg  1.657 -8.59995 -9.23574
RightLeg  -0.687629 -14.6717 -0.691539
RightFoot  6.22313 -1.82977 12.0763
RightToes  -5.28226e-011 1.30204e-014 -6.03759e-014
Spine  2.46494 -0.182431 0.882696
Spine1  5.83634 0.570683 -3.19973
HEad  -5.26021 -9.85306 -0.678137
LeftShoulder1  2.56199 -6.21067 -19.921
LeftArm  0.680727 10.0295 -52.3019
LeftForeArm  6.90201 -9.42467 -13.0101
LeftHand  -0.346025 0.784445 8.71265
RightShoulder  1.75773 3.05493 20.476
RightArm  3.65359 -5.93757 53.8152
RightForeArm  20.0093 7.8738 14.0707
RightHand  -0.239079 -3.39769 -13.325
LeftUpLeg  1.51292 9.92641 10.2746
LeftLeg  1.70702 -2.21695 1.50818
LeftFoot  0.209629 1.39751 -13.7445
LeftToes  -2.42178e-010 -1.66495e-011 -2.88221e-011
